<svg width="40" height="16" viewBox="0 0 40 16" fill="none" xmlns="http://www.w3.org/2000/svg">
<g clip-path="url(#clip0_112_1086)">
<path d="M18.6667 0.5H8C3.85786 0.5 0.5 3.85786 0.5 8C0.5 12.1421 3.85786 15.5 8 15.5H18.6667C22.8088 15.5 26.1667 12.1421 26.1667 8C26.1667 3.85786 22.8088 0.5 18.6667 0.5Z" stroke="#E89D04"/>
<path d="M31.9997 0H21.333C16.9147 0 13.333 3.58172 13.333 8C13.333 12.4183 16.9147 16 21.333 16H31.9997C36.418 16 39.9997 12.4183 39.9997 8C39.9997 3.58172 36.418 0 31.9997 0Z" fill="#E89D04"/>
</g>
<defs>
<clipPath id="clip0_112_1086">
<rect width="40" height="16" fill="white"/>
</clipPath>
</defs>
</svg>
